<svg width="31" height="27" viewBox="0 0 31 27" fill="none" xmlns="http://www.w3.org/2000/svg">
<g clip-path="url(#clip0)">
<path d="M7.74998 0H21.9583C24.4512 0 26.4791 1.71104 26.4791 3.81447V25.6114C26.4791 25.8315 26.3215 26.0309 26.08 26.1149C26.0012 26.1432 25.916 26.1563 25.8333 26.1563C25.6654 26.1563 25.5 26.1007 25.376 25.9972L18.0807 19.8406C15.2261 22.2176 11.2929 25.51 10.8706 25.9132C10.7788 26.0309 10.6329 26.117 10.4585 26.1454C10.1524 26.1955 9.85144 26.0582 9.73519 25.8173C9.70159 25.7487 9.67319 25.692 9.69129 25.6114L9.68742 2.72464C9.68742 1.82333 8.81815 1.08988 7.74992 1.08988C7.39342 1.08988 7.10407 0.845736 7.10407 0.544939C7.10407 0.244142 7.39348 0 7.74998 0ZM10.9805 2.72459V24.2686C12.0797 23.3052 14.0727 21.6464 17.63 18.6853C17.8831 18.475 18.2887 18.4761 18.5406 18.6875L25.1875 24.2959V3.81447C25.1875 2.31268 23.7395 1.08988 21.9583 1.08988H10.3333C10.7389 1.54542 10.9805 2.11104 10.9805 2.72459Z" fill="white"/>
<path d="M7.74998 0C8.10648 0 8.39583 0.244142 8.39583 0.544939C8.39583 0.845736 8.10648 1.08983 7.74998 1.08983C6.68175 1.08983 5.81248 1.82327 5.81248 2.72459V3.26953H10.3333C10.6898 3.26953 10.9792 3.51367 10.9792 3.81447C10.9792 4.11527 10.6898 4.35941 10.3333 4.35941H5.16669C4.81019 4.35941 4.52083 4.11527 4.52083 3.81447V2.72459C4.52083 1.2228 5.96875 0 7.74998 0Z" fill="white"/>
</g>
<defs>
<clipPath id="clip0">
<rect width="31" height="26.1562" transform="matrix(-1 0 0 1 31 0)" fill="white"/>
</clipPath>
</defs>
</svg>
