<svg width="16" height="16" viewBox="0 0 16 16" fill="none" xmlns="http://www.w3.org/2000/svg">
<g clip-path="url(#clip0)">
<path d="M15.8601 4.65277L11.5267 0.152826C11.3854 0.00622088 11.1687 -0.0397991 10.9801 0.0361277C10.7908 0.112787 10.6667 0.296134 10.6667 0.500111V2.66683H10.5001C6.91617 2.66683 4.00018 5.58281 4.00018 9.16675V10.1667C4.00018 10.3987 4.16351 10.592 4.38946 10.6448C4.4262 10.654 4.46283 10.6581 4.49945 10.6581C4.68816 10.6581 4.86883 10.5474 4.95611 10.3734C5.89348 8.49806 7.7781 7.3334 9.87476 7.3334H10.6667V9.5C10.6667 9.7041 10.7908 9.88745 10.9801 9.96338C11.1675 10.04 11.3854 9.9934 11.5267 9.84668L15.8601 5.34673C16.0467 5.15276 16.0467 4.84747 15.8601 4.65277V4.65277Z" fill="#FFF9F9"/>
<path d="M14.0001 15.9999H2.00019C0.897543 15.9999 0.000213623 15.1027 0.000213623 14V4.66682C0.000213623 3.56417 0.897543 2.66684 2.00019 2.66684H4.00017C4.36882 2.66684 4.66679 2.96481 4.66679 3.33346C4.66679 3.70211 4.36882 4.00008 4.00017 4.00008H2.00019C1.63216 4.00008 1.33345 4.29878 1.33345 4.66682V14C1.33345 14.368 1.63216 14.6667 2.00019 14.6667H14.0001C14.368 14.6667 14.6667 14.368 14.6667 14V8.66677C14.6667 8.29813 14.9647 8.00003 15.3333 8.00003C15.7021 8.00003 16.0001 8.29813 16.0001 8.66677V14C16.0001 15.1027 15.1027 15.9999 14.0001 15.9999V15.9999Z" fill="white"/>
</g>
<defs>
<clipPath id="clip0">
<rect width="16" height="16" fill="white"/>
</clipPath>
</defs>
</svg>
