<svg width="110" height="19" viewBox="0 0 110 19" fill="none" xmlns="http://www.w3.org/2000/svg">
<g clip-path="url(#clip0)">
<path d="M17.2723 6.50445L11.5425 5.97303L9.26651 0.68795C9.10716 0.317884 8.58245 0.317884 8.42311 0.68795L6.14712 5.97307L0.417375 6.50445C0.0161792 6.54166 -0.145964 7.04067 0.156729 7.30656L4.47984 11.1044L3.21469 16.7179C3.1261 17.111 3.55058 17.4194 3.89702 17.2136L8.84483 14.2757L13.7926 17.2136C14.1391 17.4194 14.5636 17.111 14.475 16.7179L13.2098 11.1044L17.5329 7.30656C17.8356 7.04067 17.6735 6.54166 17.2723 6.50445Z" fill="#FFD582"/>
<path d="M9.26649 0.68795C9.10715 0.317884 8.58244 0.317884 8.42309 0.68795L6.14711 5.97307L0.417374 6.50445C0.0161791 6.54166 -0.145964 7.04067 0.156729 7.30656L4.47983 11.1044L3.21468 16.7179C3.12609 17.111 3.55058 17.4194 3.89701 17.2136L5.00133 16.5579C5.15418 10.2663 8.07746 5.83573 10.3919 3.30118L9.26649 0.68795Z" fill="#D1AE6A"/>
</g>
<g clip-path="url(#clip1)">
<path d="M86.0654 7.15972L80.3356 6.62831L78.0596 1.34322C77.9003 0.973157 77.3755 0.973157 77.2162 1.34322L74.9402 6.62834L69.2105 7.15972C68.8093 7.19693 68.6471 7.69594 68.9498 7.96184L73.2729 11.7596L72.0078 17.3732C71.9192 17.7662 72.3437 18.0746 72.6901 17.8689L77.6379 14.931L82.5857 17.8689C82.9322 18.0746 83.3567 17.7662 83.2681 17.3732L82.0029 11.7596L86.326 7.96184C86.6287 7.69594 86.4666 7.19693 86.0654 7.15972Z" fill="#FFD582"/>
<path d="M78.0596 1.34322C77.9002 0.973157 77.3755 0.973157 77.2162 1.34322L74.9402 6.62834L69.2105 7.15972C68.8093 7.19693 68.6471 7.69594 68.9498 7.96184L73.2729 11.7596L72.0078 17.3732C71.9192 17.7662 72.3437 18.0746 72.6901 17.8689L73.7944 17.2132C73.9473 10.9216 76.8705 6.49101 79.185 3.95645L78.0596 1.34322Z" fill="#D1AE6A"/>
</g>
<g clip-path="url(#clip2)">
<path d="M40.2033 6.50445L34.4736 5.97303L32.1975 0.68795C32.0382 0.317884 31.5135 0.317884 31.3541 0.68795L29.0782 5.97307L23.3484 6.50445C22.9472 6.54166 22.7851 7.04067 23.0878 7.30656L27.4109 11.1044L26.1457 16.7179C26.0571 17.111 26.4816 17.4194 26.828 17.2136L31.7759 14.2757L36.7237 17.2136C37.0701 17.4194 37.4946 17.111 37.406 16.7179L36.1408 11.1044L40.464 7.30656C40.7666 7.04067 40.6045 6.54166 40.2033 6.50445Z" fill="#FFD582"/>
<path d="M32.1975 0.68795C32.0382 0.317884 31.5135 0.317884 31.3541 0.68795L29.0781 5.97307L23.3484 6.50445C22.9472 6.54166 22.7851 7.04067 23.0878 7.30656L27.4109 11.1044L26.1457 16.7179C26.0571 17.111 26.4816 17.4194 26.828 17.2136L27.9324 16.5579C28.0852 10.2663 31.0085 5.83573 33.3229 3.30118L32.1975 0.68795Z" fill="#D1AE6A"/>
</g>
<g clip-path="url(#clip3)">
<path d="M108.996 7.81475L103.267 7.28334L100.991 1.99825C100.831 1.62819 100.307 1.62819 100.147 1.99825L97.8712 7.28337L92.1415 7.81475C91.7403 7.85196 91.5782 8.35097 91.8808 8.61687L96.204 12.4147L94.9388 18.0282C94.8502 18.4213 95.2747 18.7297 95.6211 18.524L100.569 15.586L105.517 18.524C105.863 18.7297 106.288 18.4213 106.199 18.0282L104.934 12.4147L109.257 8.61687C109.56 8.35097 109.398 7.85196 108.996 7.81475Z" fill="#FFD582"/>
<path d="M100.991 1.99825C100.831 1.62819 100.307 1.62819 100.147 1.99825L97.8712 7.28337L92.1415 7.81475C91.7403 7.85196 91.5782 8.35097 91.8808 8.61687L96.204 12.4147L94.9388 18.0282C94.8502 18.4213 95.2747 18.7297 95.6211 18.524L96.7255 17.8682C96.8783 11.5766 99.8016 7.14604 102.116 4.61148L100.991 1.99825Z" fill="#D1AE6A"/>
</g>
<g clip-path="url(#clip4)">
<path d="M63.1343 7.81475L57.4046 7.28334L55.1286 1.99825C54.9692 1.62819 54.4445 1.62819 54.2852 1.99825L52.0092 7.28337L46.2794 7.81475C45.8782 7.85196 45.7161 8.35097 46.0188 8.61687L50.3419 12.4147L49.0767 18.0282C48.9882 18.4213 49.4126 18.7297 49.7591 18.524L54.7069 15.586L59.6547 18.524C60.0011 18.7297 60.4256 18.4213 60.3371 18.0282L59.0719 12.4147L63.395 8.61687C63.6977 8.35097 63.5355 7.85196 63.1343 7.81475Z" fill="#FFD582"/>
<path d="M55.1286 1.99825C54.9692 1.62819 54.4445 1.62819 54.2852 1.99825L52.0092 7.28337L46.2794 7.81475C45.8782 7.85196 45.7161 8.35097 46.0188 8.61687L50.3419 12.4147L49.0767 18.0282C48.9882 18.4213 49.4126 18.7297 49.7591 18.524L50.8634 17.8682C51.0162 11.5766 53.9395 7.14604 56.254 4.61148L55.1286 1.99825Z" fill="#D1AE6A"/>
</g>
<defs>
<clipPath id="clip0">
<rect width="17.6897" height="17.6897" fill="white"/>
</clipPath>
<clipPath id="clip1">
<rect x="68.7931" y="0.655273" width="17.6897" height="17.6897" fill="white"/>
</clipPath>
<clipPath id="clip2">
<rect x="22.931" width="17.6897" height="17.6897" fill="white"/>
</clipPath>
<clipPath id="clip3">
<rect x="91.7241" y="1.3103" width="17.6897" height="17.6897" fill="white"/>
</clipPath>
<clipPath id="clip4">
<rect x="45.8621" y="1.3103" width="17.6897" height="17.6897" fill="white"/>
</clipPath>
</defs>
</svg>
