<svg width="59" height="10" viewBox="0 0 59 10" fill="none" xmlns="http://www.w3.org/2000/svg">
<path d="M9.26423 3.42346L6.19098 3.14376L4.97022 0.362143C4.88475 0.167372 4.60331 0.167372 4.51785 0.362143L3.29709 3.14379L0.223865 3.42346C0.00867784 3.44304 -0.0782899 3.70568 0.0840636 3.84562L2.40282 5.84448L1.72424 8.79896C1.67673 9.00585 1.9044 9.16817 2.09022 9.05985L4.74404 7.51359L7.39785 9.05985C7.5837 9.16817 7.81139 9.00585 7.76386 8.79896L7.08526 5.84448L9.40401 3.84562C9.56637 3.70568 9.47942 3.44304 9.26423 3.42346Z" fill="#FFD582"/>
<path d="M4.97021 0.362143C4.88474 0.167372 4.60331 0.167372 4.51784 0.362143L3.29709 3.14379L0.223864 3.42346C0.00867783 3.44304 -0.0782898 3.70568 0.0840637 3.84562L2.40282 5.84448L1.72424 8.79896C1.67672 9.00585 1.9044 9.16817 2.09021 9.05985L2.68253 8.71475C2.76451 5.40338 4.33246 3.0715 5.57384 1.73753L4.97021 0.362143Z" fill="#D1AE6A"/>
<path d="M46.1623 3.76831L43.0891 3.48862L41.8683 0.706991C41.7829 0.512221 41.5014 0.512221 41.416 0.706991L40.1952 3.48863L37.122 3.76831C36.9068 3.78789 36.8198 4.05053 36.9822 4.19047L39.3009 6.1893L38.6224 9.14382C38.5748 9.35066 38.8025 9.51298 38.9883 9.40472L41.6421 7.85845L44.296 9.40472C44.4818 9.51298 44.7095 9.35066 44.662 9.14382L43.9834 6.1893L46.3021 4.19047C46.4645 4.05053 46.3775 3.78789 46.1623 3.76831Z" fill="#FFD582"/>
<path d="M41.8683 0.706991C41.7828 0.512221 41.5014 0.512221 41.416 0.706991L40.1952 3.48863L37.122 3.76831C36.9068 3.78789 36.8198 4.05053 36.9822 4.19047L39.3009 6.1893L38.6224 9.14382C38.5748 9.35066 38.8025 9.51298 38.9883 9.40472L39.5806 9.05961C39.6626 5.74824 41.2305 3.41635 42.472 2.08237L41.8683 0.706991Z" fill="#D1AE6A"/>
<path d="M21.5636 3.42346L18.4904 3.14376L17.2696 0.362143C17.1841 0.167372 16.9027 0.167372 16.8172 0.362143L15.5965 3.14379L12.5232 3.42346C12.308 3.44304 12.2211 3.70568 12.3835 3.84562L14.7022 5.84448L14.0236 8.79896C13.9761 9.00585 14.2038 9.16817 14.3896 9.05985L17.0434 7.51359L19.6973 9.05985C19.8831 9.16817 20.1107 9.00585 20.0632 8.79896L19.3846 5.84448L21.7034 3.84562C21.8657 3.70568 21.7788 3.44304 21.5636 3.42346Z" fill="#FFD582"/>
<path d="M17.2696 0.362143C17.1841 0.167372 16.9027 0.167372 16.8172 0.362143L15.5964 3.14379L12.5232 3.42346C12.308 3.44304 12.2211 3.70568 12.3835 3.84562L14.7022 5.84448L14.0236 8.79896C13.9761 9.00585 14.2038 9.16817 14.3896 9.05985L14.9819 8.71475C15.0639 5.40338 16.6318 3.0715 17.8732 1.73753L17.2696 0.362143Z" fill="#D1AE6A"/>
<path d="M58.4615 4.11303L55.3887 3.83334L54.1679 1.05172C54.0821 0.856948 53.801 0.856948 53.7152 1.05172L52.4945 3.83336L49.4213 4.11303C49.2062 4.13262 49.1192 4.39525 49.2815 4.5352L51.6003 6.53406L50.9217 9.48853C50.8742 9.69543 51.1019 9.85774 51.2877 9.74948L53.9415 8.20316L56.5955 9.74948C56.7811 9.85774 57.009 9.69543 56.9613 9.48853L56.2828 6.53406L58.6015 4.5352C58.764 4.39525 58.6771 4.13262 58.4615 4.11303Z" fill="#FFD582"/>
<path d="M54.1679 1.05172C54.0821 0.856948 53.801 0.856948 53.7152 1.05172L52.4945 3.83336L49.4213 4.11303C49.2062 4.13262 49.1192 4.39525 49.2815 4.5352L51.6003 6.53406L50.9217 9.48853C50.8742 9.69543 51.1019 9.85774 51.2877 9.74948L51.88 9.40432C51.962 6.09295 53.5299 3.76108 54.7713 2.4271L54.1679 1.05172Z" fill="#D1AE6A"/>
<path d="M33.8629 4.11303L30.7897 3.83334L29.569 1.05172C29.4835 0.856948 29.202 0.856948 29.1166 1.05172L27.8958 3.83336L24.8226 4.11303C24.6074 4.13262 24.5205 4.39525 24.6828 4.5352L27.0016 6.53406L26.323 9.48853C26.2755 9.69543 26.5031 9.85774 26.689 9.74948L29.3428 8.20316L31.9966 9.74948C32.1824 9.85774 32.4101 9.69543 32.3626 9.48853L31.684 6.53406L34.0028 4.5352C34.1651 4.39525 34.0781 4.13262 33.8629 4.11303Z" fill="#FFD582"/>
<path d="M29.569 1.05172C29.4835 0.856948 29.202 0.856948 29.1166 1.05172L27.8958 3.83336L24.8226 4.11303C24.6074 4.13262 24.5205 4.39525 24.6828 4.5352L27.0016 6.53406L26.323 9.48853C26.2755 9.69543 26.5031 9.85774 26.689 9.74948L27.2813 9.40432C27.3632 6.09295 28.9312 3.76108 30.1726 2.4271L29.569 1.05172Z" fill="#D1AE6A"/>
</svg>
